<?xml version="1.0" encoding="UTF-8"?><svg id="Layer_1" xmlns="http://www.w3.org/2000/svg" viewBox="0 0 406.01 122.85"><defs><style>.cls-1{fill:#be3f39;}</style></defs><path d="M128.78,35.75l-27.11,84.73h-23.72l-13.56-45.24-13.56,45.24H27.11L0,35.75H27.11l12.2,45.41,13.22-45.41h23.72l13.22,45.41,12.2-45.41h27.11Z"/><path class="cls-1" d="M215.37,121.84l-13.73-14.4c-7.96,9.15-19.66,14.91-35.42,14.91-23.38,0-38.63-12.88-38.63-33.38,0-14.74,8.13-27.79,23.55-34.57-5.42-6.27-9.49-13.22-9.49-23.21,0-19.49,15.93-31.18,33.55-31.18,14.91,0,27.96,8.3,33.04,22.37l-7.46,4.41c-3.56-11.18-13.39-18.13-25.42-18.13-14.06,0-24.57,9.15-24.57,22.2,0,9.66,5.59,16.44,12.88,23.89l37.11,38.8c3.39-6.27,5.93-14.23,7.12-23.55l7.96,4.58c-1.52,9.32-4.41,18.13-8.81,25.59l16.27,17.11-7.96,4.58Zm-19.83-20.84l-38.13-39.99c-14.91,5.59-20.67,16.95-20.67,27.79,0,15.59,11.35,24.91,29.15,24.91,12.03,0,22.2-4.24,29.65-12.71Z"/><path d="M227.91,78.12c0-25.25,19.15-44.74,44.9-44.74,16.44,0,31.01,8.64,38.3,21.69l-22.2,12.88c-2.88-5.93-8.98-9.49-16.44-9.49-11.01,0-19.15,7.96-19.15,19.66s8.13,19.66,19.15,19.66c7.46,0,13.73-3.56,16.44-9.49l22.2,12.71c-7.29,13.22-21.69,21.86-38.3,21.86-25.76,0-44.9-19.49-44.9-44.74Z"/><path d="M316.2,78.12c0-25.25,20-44.74,44.9-44.74s44.9,19.49,44.9,44.74-20,44.74-44.9,44.74-44.9-19.49-44.9-44.74Zm64.39,0c0-12.03-8.47-20-19.49-20s-19.49,7.96-19.49,20,8.47,20,19.49,20,19.49-7.96,19.49-20Z"/></svg>